<?xml version="1.0" standalone="no"?>
<!DOCTYPE svg PUBLIC "-//W3C//DTD SVG 20010904//EN"
 "http://www.w3.org/TR/2001/REC-SVG-20010904/DTD/svg10.dtd">
<svg version="1.0" xmlns="http://www.w3.org/2000/svg"
 width="1200.000000pt" height="1200.000000pt" viewBox="0 0 1200.000000 1200.000000"
 preserveAspectRatio="xMidYMid meet">

<g transform="translate(0.000000,1200.000000) scale(0.100000,-0.100000)"
fill="#000000" stroke="none">
<path d="M0 6000 l0 -6000 6000 0 6000 0 0 6000 0 6000 -6000 0 -6000 0 0
-6000z m6285 4224 c329 -42 607 -124 902 -264 809 -386 1390 -1102 1607 -1981
197 -801 37 -1676 -432 -2359 -164 -239 -374 -466 -599 -647 -411 -330 -938
-553 -1478 -625 -134 -17 -606 -17 -740 0 -552 74 -1099 310 -1510 654 -731
610 -1122 1500 -1074 2442 13 247 43 424 115 673 130 455 376 878 709 1221
342 353 725 597 1185 755 212 73 498 131 730 147 152 11 435 3 585 -16z
m-2237 -6479 c106 -32 158 -111 150 -229 -3 -53 -10 -73 -35 -108 -37 -51
-107 -101 -173 -125 l-47 -17 47 -46 c69 -67 80 -120 54 -270 -20 -125 -16
-146 31 -143 39 3 60 25 92 99 20 46 33 64 46 64 17 0 19 -5 13 -32 -10 -53
-51 -131 -85 -165 -51 -52 -113 -61 -194 -31 -63 24 -72 105 -31 279 23 96 25
117 15 150 -19 62 -47 74 -175 74 l-111 0 -58 -214 c-32 -117 -56 -220 -53
-227 4 -10 27 -14 86 -14 79 0 86 -3 74 -34 -5 -14 -36 -16 -235 -16 -132 0
-229 4 -229 9 0 34 13 41 75 41 44 0 66 5 75 16 23 27 249 877 238 892 -6 7
-35 12 -70 12 -51 0 -59 2 -54 16 3 9 6 20 6 25 0 5 104 9 248 9 195 0 260 -3
300 -15z m1936 -36 c19 -15 26 -29 26 -56 0 -49 -24 -73 -72 -73 -106 0 -104
145 3 149 9 1 28 -8 43 -20z m2609 -11 c42 -50 7 -118 -62 -118 -47 0 -71 26
-71 76 0 67 88 95 133 42z m-503 17 c0 -5 -73 -276 -86 -317 -5 -16 3 -18 69
-18 40 0 76 -3 79 -6 3 -3 4 -14 1 -25 -5 -17 -15 -19 -87 -19 l-81 0 -63
-238 c-35 -130 -63 -249 -62 -263 0 -34 23 -53 55 -45 29 7 67 68 96 155 13
39 26 61 36 61 38 0 -34 -199 -88 -244 -58 -49 -133 -42 -170 16 -31 50 -21
138 40 356 28 101 51 187 51 193 0 5 -20 9 -45 9 -45 0 -50 5 -39 34 4 12 20
16 55 16 l48 0 11 43 c7 23 22 80 35 127 13 47 28 104 35 128 l11 42 49 0 c28
0 50 -2 50 -5z m-3301 -354 c72 -52 108 -199 77 -318 -47 -186 -182 -316 -326
-316 -109 0 -180 77 -196 214 -19 160 88 358 228 425 70 33 166 31 217 -5z
m553 -31 c53 -57 88 -74 103 -50 3 5 -4 23 -16 39 -27 37 -13 71 29 71 39 0
52 -17 52 -67 0 -108 -84 -196 -274 -288 -74 -36 -149 -77 -165 -91 -33 -27
-41 -54 -17 -54 8 0 45 -14 83 -31 148 -66 214 -48 278 78 18 38 30 50 41 46
11 -4 14 -13 9 -32 -12 -50 -64 -146 -95 -178 -33 -33 -97 -58 -128 -49 -9 2
-30 7 -45 10 -15 4 -55 31 -87 61 -33 30 -64 55 -69 55 -21 0 -22 -23 -2 -44
27 -28 27 -62 1 -76 -50 -26 -86 17 -75 88 17 116 97 195 287 285 77 37 147
77 166 96 32 33 38 56 7 31 -23 -19 -95 -7 -144 26 -77 50 -140 32 -189 -56
-15 -27 -33 -50 -41 -50 -39 0 49 178 108 217 23 16 49 23 80 23 43 0 49 -4
103 -60z m546 20 c21 -31 23 -43 20 -115 -4 -71 -11 -97 -66 -225 -69 -163
-80 -203 -62 -225 32 -39 86 9 142 125 31 64 48 90 61 90 23 0 18 -17 -28
-115 -76 -161 -195 -211 -247 -105 -36 72 -22 156 59 344 35 81 57 146 57 171
1 36 -2 40 -25 43 -35 4 -82 -51 -127 -148 -41 -89 -36 -82 -55 -74 -14 5 -14
11 4 57 29 74 79 154 117 189 29 25 41 29 80 26 40 -3 49 -8 70 -38z m863 8
c16 -27 19 -47 17 -111 -2 -42 -2 -77 -1 -77 1 0 18 32 39 70 20 39 54 88 75
110 34 35 45 40 84 40 63 0 95 -32 95 -93 0 -62 -29 -97 -79 -97 -20 0 -42 5
-49 12 -15 15 -15 60 0 93 16 36 3 43 -28 14 -60 -57 -162 -268 -225 -471
l-34 -108 -47 0 c-35 0 -48 4 -48 14 0 8 27 115 61 238 69 251 82 334 55 344
-28 11 -75 -44 -120 -138 -32 -69 -44 -85 -56 -78 -12 7 -11 17 10 67 31 76
81 154 115 181 19 15 42 22 71 22 39 0 47 -4 65 -32z m808 3 c72 -52 108 -199
77 -318 -47 -186 -182 -316 -326 -316 -109 0 -180 77 -196 214 -19 160 88 358
228 425 70 33 166 31 217 -5z m914 11 c9 -9 21 -39 28 -65 19 -69 2 -148 -66
-307 -64 -151 -76 -199 -51 -219 13 -11 21 -10 48 6 24 14 46 44 81 113 72
141 110 134 43 -7 -43 -90 -96 -149 -147 -165 -35 -10 -43 -9 -67 9 -45 33
-54 60 -49 148 4 70 12 97 62 215 67 156 79 193 70 220 -9 30 -52 25 -83 -8
-15 -16 -46 -68 -69 -115 -32 -65 -47 -85 -58 -81 -20 8 -14 27 37 126 53 102
103 148 161 148 29 0 49 -6 60 -18z m-4111 -1080 c46 -46 21 -122 -41 -122
-52 0 -87 75 -41 87 27 7 22 37 -8 41 -31 5 -44 -34 -40 -122 l3 -71 50 -4 50
-5 -50 -5 -50 -6 -3 -157 -3 -158 46 0 c25 0 45 -4 45 -10 0 -6 -52 -10 -135
-10 -83 0 -135 4 -135 10 0 6 9 10 20 10 19 0 20 7 20 160 0 159 0 160 -22
161 -22 2 -22 2 -2 6 18 3 23 14 28 63 13 111 74 164 184 158 48 -3 68 -9 84
-26z m-1092 -108 l0 -126 31 26 c45 38 115 37 158 -3 l31 -29 0 -141 c0 -133
1 -141 19 -141 11 0 23 -4 26 -10 4 -6 -33 -10 -104 -10 -67 0 -111 4 -111 10
0 6 7 10 15 10 13 0 15 21 13 147 -3 129 -5 148 -20 151 -10 2 -24 -8 -35 -24
-26 -40 -34 -274 -9 -274 9 0 16 -4 16 -10 0 -6 -42 -10 -105 -10 -63 0 -105
4 -105 10 0 6 9 10 20 10 19 0 20 7 20 260 0 256 0 260 -21 260 -11 0 -17 5
-14 10 3 6 44 10 91 10 l84 0 0 -126z m2220 -144 c0 -263 0 -270 20 -270 11 0
20 -4 20 -10 0 -6 -35 -10 -85 -10 -81 0 -85 1 -85 22 l0 21 -25 -23 c-34 -32
-111 -34 -152 -4 -45 34 -58 70 -58 164 0 98 18 140 71 165 37 17 106 20 135
5 18 -10 19 -6 19 90 l0 100 -26 0 c-14 0 -23 4 -19 10 3 6 46 10 96 10 l89 0
0 -270z m3878 -1 c2 -266 2 -267 25 -275 15 -5 -4 -9 -62 -11 -66 -3 -87 -1
-93 11 -7 12 -14 11 -45 -6 -42 -21 -98 -18 -138 8 -34 22 -55 84 -55 162 1
126 52 188 149 180 25 -3 54 -8 64 -12 16 -8 18 -1 15 90 -3 94 -4 99 -26 102
-12 2 -20 8 -16 13 3 5 44 8 92 7 l87 -3 3 -266z m-6314 209 c9 -36 7 -168 -3
-168 -5 0 -17 23 -27 50 -21 58 -59 106 -91 115 l-23 6 0 -240 0 -241 30 0
c17 0 30 -4 30 -10 0 -6 -52 -10 -135 -10 -83 0 -135 4 -135 10 0 6 14 10 30
10 l30 0 0 241 0 240 -22 -6 c-33 -9 -71 -57 -92 -115 -10 -27 -22 -50 -27
-50 -10 0 -13 149 -3 174 5 14 34 16 219 16 212 0 213 0 219 -22z m765 -156
c45 -22 69 -57 77 -109 l7 -43 -107 0 -106 0 0 -42 c0 -55 28 -110 60 -122 37
-12 94 14 111 53 19 42 42 43 27 1 -21 -61 -102 -97 -189 -85 -99 14 -153 77
-153 179 1 88 43 155 110 176 50 14 127 11 163 -8z m796 -2 c58 -28 79 -69 80
-155 0 -130 -56 -188 -184 -189 -121 -1 -179 51 -188 167 -6 84 23 142 87 175
58 29 147 30 205 2z m400 0 c58 -28 79 -69 80 -155 0 -130 -56 -188 -184 -189
-121 -1 -179 51 -188 167 -6 84 23 142 87 175 58 29 147 30 205 2z m1330 0
c58 -28 79 -69 80 -155 0 -130 -56 -188 -184 -189 -121 -1 -179 51 -188 167
-6 84 23 142 87 175 58 29 147 30 205 2z m948 6 c49 -20 69 -50 75 -106 l5
-50 -103 0 -102 0 4 -62 c4 -52 9 -65 33 -85 22 -19 35 -23 59 -19 30 6 78 48
88 77 3 8 9 11 13 6 14 -13 -23 -75 -54 -92 -109 -56 -254 -5 -282 98 -14 54
-5 129 21 172 40 65 161 96 243 61z m382 0 c18 -8 39 -25 46 -38 7 -13 14 -76
17 -146 5 -125 16 -152 37 -84 5 18 13 32 18 32 11 0 -1 -59 -18 -86 -24 -38
-117 -42 -157 -6 -16 14 -20 13 -37 -2 -50 -45 -153 -23 -169 36 -19 74 18
114 116 124 l62 7 0 63 c0 75 -6 94 -31 94 -27 0 -35 -26 -15 -46 11 -10 14
-24 10 -38 -12 -38 -26 -47 -68 -44 -31 2 -44 9 -55 29 -20 35 -1 82 42 103
41 20 156 21 202 2z m453 -2 c27 -19 31 -93 6 -118 -18 -19 -75 -21 -92 -4
-18 18 -15 66 6 77 13 8 14 12 5 22 -10 10 -16 9 -29 -2 -33 -27 -44 -75 -44
-189 l0 -110 25 0 c14 0 25 -4 25 -10 0 -6 -45 -10 -115 -10 -70 0 -115 4
-115 10 0 6 9 10 20 10 19 0 20 7 20 155 0 152 -1 156 -22 165 -16 6 4 9 70 9
88 1 92 0 92 -21 0 -19 2 -20 13 -6 31 39 96 50 135 22z m404 -13 l33 -29 3
-141 c3 -131 5 -141 23 -141 10 0 19 -4 19 -10 0 -6 -42 -10 -105 -10 -63 0
-105 4 -105 10 0 6 7 10 16 10 13 0 15 18 12 140 -3 160 -13 184 -54 137 -23
-26 -24 -35 -24 -149 0 -103 3 -123 18 -134 14 -11 0 -13 -95 -14 -69 0 -113
4 -113 10 0 6 9 10 20 10 19 0 20 7 20 159 0 158 0 160 -22 164 -13 2 21 5 75
6 82 1 97 -1 97 -15 0 -13 5 -12 26 5 42 33 115 29 156 -8z m361 15 c42 -17
66 -53 74 -111 l6 -45 -108 0 -107 0 7 -57 c8 -69 26 -100 61 -109 36 -9 90
18 109 56 14 27 35 41 35 23 0 -18 -41 -73 -66 -89 -39 -26 -147 -25 -198 1
-66 33 -81 63 -81 160 0 69 4 89 21 112 46 63 167 93 247 59z m-3020 -6 l-22
-9 33 -98 c18 -54 35 -104 37 -112 5 -13 79 182 79 206 0 7 -10 14 -22 16 -13
2 4 4 37 4 33 0 50 -2 39 -4 -18 -3 -34 -40 -100 -230 -91 -264 -110 -293
-186 -293 -79 0 -124 61 -84 115 15 21 67 25 90 5 21 -17 21 -70 0 -70 -18 0
-14 -22 5 -28 19 -6 74 60 93 111 l17 47 -32 0 c-31 0 -33 2 -66 93 -77 209
-93 246 -109 250 -9 3 35 5 98 5 76 1 108 -2 93 -8z m747 -139 c0 -117 3 -151
14 -160 12 -10 19 -8 35 8 19 19 21 33 21 155 0 120 -2 135 -17 139 -10 3 24
5 75 6 l92 1 0 -165 c0 -158 1 -165 20 -165 11 0 20 -4 20 -10 0 -6 -37 -10
-90 -10 -86 0 -90 1 -90 22 l0 21 -23 -21 c-50 -47 -155 -31 -184 28 -8 16
-13 71 -13 153 0 123 -1 128 -22 137 -16 6 4 9 70 9 l92 1 0 -149z"/>
<path d="M5685 10114 c-354 -41 -579 -95 -846 -205 -336 -138 -619 -323 -882
-579 -265 -256 -419 -466 -577 -780 -457 -912 -384 -2007 191 -2856 141 -208
365 -451 565 -615 288 -235 698 -442 1064 -535 794 -203 1612 -65 2289 386
645 430 1088 1109 1220 1874 48 276 53 626 11 900 -160 1056 -884 1922 -1900
2271 -176 61 -420 112 -639 134 -94 10 -424 13 -496 5z m1446 -986 c25 -9 79
-66 106 -112 7 -12 12 -37 12 -56 0 -19 -5 -45 -12 -57 -7 -11 -144 -156 -304
-321 -289 -296 -292 -300 -272 -318 20 -18 24 -14 322 284 263 263 308 303
339 308 49 8 80 0 119 -33 79 -67 108 -143 76 -200 -7 -11 -144 -156 -304
-321 -290 -297 -292 -300 -272 -318 20 -18 24 -15 313 275 160 161 303 299
317 307 32 18 83 17 118 -1 43 -22 110 -103 117 -141 3 -19 3 -46 0 -60 -4
-15 -78 -100 -166 -193 -260 -273 -722 -727 -769 -756 -24 -15 -73 -39 -110
-53 -57 -22 -81 -26 -181 -26 -93 0 -126 4 -172 21 l-57 22 -862 -872 c-474
-480 -903 -913 -953 -964 -130 -131 -122 -132 -267 14 -94 94 -119 125 -119
146 0 23 128 159 755 802 416 426 781 802 811 835 l56 60 -83 88 c-130 135
-1452 1482 -1455 1482 -2 0 -14 -33 -26 -72 -30 -97 -32 -282 -4 -373 28 -93
78 -194 130 -263 26 -34 270 -288 542 -564 l494 -502 -42 -43 -42 -43 -475
482 c-262 264 -508 521 -547 569 -82 103 -144 221 -176 334 -18 65 -22 104
-21 210 1 141 22 236 78 358 30 64 55 81 95 63 14 -6 398 -390 853 -853 717
-730 827 -846 827 -871 0 -31 20 -9 -1311 -1373 l-318 -326 60 -59 59 -59 68
70 c92 94 898 910 1415 1433 287 289 425 422 439 422 12 0 51 -12 87 -27 55
-23 81 -27 156 -27 100 0 160 17 236 65 26 16 235 221 465 455 l417 425 -31
32 -32 32 -323 -323 c-272 -271 -327 -322 -351 -322 -21 0 -45 16 -96 66 -72
69 -98 112 -83 138 4 8 150 160 322 336 l314 321 -32 32 -31 32 -323 -323
c-252 -252 -328 -322 -347 -322 -37 0 -182 148 -182 185 0 29 11 41 421 457
l214 217 -31 35 -31 35 -422 -427 c-232 -235 -433 -445 -447 -467 -60 -94 -79
-248 -46 -366 19 -68 13 -105 -21 -121 -55 -25 -96 42 -114 190 -17 134 16
269 92 382 26 39 811 840 875 893 26 21 78 36 102 29 8 -2 27 -8 41 -14z
m-423 -2530 c804 -815 869 -882 874 -898 9 -27 -18 -63 -126 -169 -95 -93
-108 -103 -133 -96 -25 6 -194 175 -1190 1186 -106 107 -193 201 -193 207 0
15 22 62 29 62 3 0 17 3 30 7 21 5 100 -71 680 -656 l656 -663 52 54 52 53
-646 655 c-355 360 -649 664 -653 675 -8 20 4 54 24 67 38 26 55 11 544 -484z"/>
<path d="M3781 3702 c-10 -7 -120 -371 -121 -399 0 -2 50 -3 110 -3 121 0 165
12 213 58 44 42 69 100 75 172 5 77 -13 130 -54 156 -30 21 -199 32 -223 16z"/>
<path d="M4605 3319 c-72 -64 -141 -242 -151 -394 -6 -73 -4 -83 18 -115 33
-48 65 -58 114 -34 86 43 168 234 181 419 5 73 3 83 -19 115 -20 29 -31 36
-65 38 -34 3 -47 -2 -78 -29z"/>
<path d="M7375 3319 c-72 -64 -141 -242 -151 -394 -6 -73 -4 -83 18 -115 88
-129 230 23 287 308 29 142 1 224 -76 230 -34 3 -47 -2 -78 -29z"/>
<path d="M5280 2060 c-6 -12 -9 -69 -8 -141 3 -105 6 -123 21 -133 15 -9 22
-7 38 13 16 20 19 39 19 133 0 60 -5 118 -10 129 -14 25 -46 24 -60 -1z"/>
<path d="M9153 2053 c-4 -16 -8 -76 -8 -135 0 -87 3 -110 17 -124 21 -21 45
-12 58 21 14 36 13 209 -2 240 -16 36 -55 34 -65 -2z"/>
<path d="M3700 2064 c-6 -14 -10 -43 -10 -65 0 -38 1 -39 35 -39 l35 0 0 53
c0 53 -12 77 -37 77 -8 0 -18 -12 -23 -26z"/>
<path d="M4480 2071 c-5 -11 -10 -78 -10 -150 0 -104 3 -133 16 -145 18 -18
23 -19 44 -6 12 7 16 37 18 137 2 74 -1 140 -7 156 -12 32 -45 36 -61 8z"/>
<path d="M4880 2071 c-5 -11 -10 -78 -10 -150 0 -104 3 -133 16 -145 18 -18
23 -19 44 -6 12 7 16 37 18 137 2 74 -1 140 -7 156 -12 32 -45 36 -61 8z"/>
<path d="M6210 2071 c-5 -11 -10 -78 -10 -150 0 -104 3 -133 16 -145 18 -18
23 -19 44 -6 12 7 16 37 18 137 2 74 -1 140 -7 156 -12 32 -45 36 -61 8z"/>
<path d="M7180 2071 c-5 -11 -10 -40 -10 -65 0 -46 0 -46 35 -46 34 0 35 1 35
39 0 77 -35 118 -60 72z"/>
<path d="M7560 1891 c-13 -26 -13 -98 1 -107 18 -11 29 17 29 74 0 54 -12 67
-30 33z"/>
<path d="M8781 2076 c-6 -8 -14 -37 -18 -65 l-6 -51 37 0 36 0 0 49 c0 77 -19
103 -49 67z"/>
</g>
</svg>
