<svg width="12" height="11" viewBox="0 0 12 11" fill="none" xmlns="http://www.w3.org/2000/svg">
<path d="M5.90727 3.27273L7.63636 4.99636V4.90909C7.63636 4.4751 7.46396 4.05888 7.15708 3.75201C6.85021 3.44513 6.43399 3.27273 6 3.27273H5.90727ZM3.56182 3.70909L4.40727 4.55455C4.38 4.66909 4.36364 4.78364 4.36364 4.90909C4.36364 5.34308 4.53604 5.7593 4.84292 6.06617C5.14979 6.37305 5.56601 6.54545 6 6.54545C6.12 6.54545 6.24 6.52909 6.35455 6.50182L7.2 7.34727C6.83455 7.52727 6.43091 7.63636 6 7.63636C5.27668 7.63636 4.58299 7.34903 4.07153 6.83756C3.56006 6.3261 3.27273 5.63241 3.27273 4.90909C3.27273 4.47818 3.38182 4.07455 3.56182 3.70909ZM0.545455 0.692727L1.78909 1.93636L2.03455 2.18182C1.13455 2.89091 0.425455 3.81818 0 4.90909C0.943636 7.30364 3.27273 9 6 9C6.84545 9 7.65273 8.83636 8.38909 8.54182L8.62364 8.77091L10.2164 10.3636L10.9091 9.67091L1.23818 0M6 2.18182C6.72332 2.18182 7.41701 2.46915 7.92847 2.98062C8.43994 3.49208 8.72727 4.18577 8.72727 4.90909C8.72727 5.25818 8.65636 5.59636 8.53091 5.90182L10.1291 7.5C10.9473 6.81818 11.6018 5.92364 12 4.90909C11.0564 2.51455 8.72727 0.818182 6 0.818182C5.23636 0.818182 4.50545 0.954545 3.81818 1.2L5.00182 2.37273C5.31273 2.25273 5.64545 2.18182 6 2.18182Z" fill="#ADADAD"/>
</svg>
